<svg width="22" height="22" viewBox="0 0 22 22" fill="none" xmlns="http://www.w3.org/2000/svg">
<rect width="22" height="22" rx="11" fill="#8B72ED" fill-opacity="0.8"/>
<path fill-rule="evenodd" clip-rule="evenodd" d="M8 7C7.44614 7 7 7.44614 7 8V8.5C7 8.77614 6.77614 9 6.5 9C6.22386 9 6 8.77614 6 8.5V8C6 6.89386 6.89386 6 8 6H9C9.27614 6 9.5 6.22386 9.5 6.5C9.5 6.77614 9.27614 7 9 7H8Z" fill="white"/>
<path fill-rule="evenodd" clip-rule="evenodd" d="M12.5 6.5C12.5 6.22386 12.7239 6 13 6H14C15.1061 6 16 6.89386 16 8V8.5C16 8.77614 15.7761 9 15.5 9C15.2239 9 15 8.77614 15 8.5V8C15 7.44614 14.5539 7 14 7H13C12.7239 7 12.5 6.77614 12.5 6.5Z" fill="white"/>
<path fill-rule="evenodd" clip-rule="evenodd" d="M15.5 13C15.7761 13 16 13.2239 16 13.5V14C16 15.1061 15.1061 16 14 16H13C12.7239 16 12.5 15.7761 12.5 15.5C12.5 15.2239 12.7239 15 13 15H14C14.5539 15 15 14.5539 15 14V13.5C15 13.2239 15.2239 13 15.5 13Z" fill="white"/>
<path fill-rule="evenodd" clip-rule="evenodd" d="M6.5 13C6.77614 13 7 13.2239 7 13.5V14C7 14.5539 7.44614 15 8 15H9C9.27614 15 9.5 15.2239 9.5 15.5C9.5 15.7761 9.27614 16 9 16H8C6.89386 16 6 15.1061 6 14V13.5C6 13.2239 6.22386 13 6.5 13Z" fill="white"/>
<path fill-rule="evenodd" clip-rule="evenodd" d="M6 11C6 10.7239 6.22386 10.5 6.5 10.5H15.5C15.7761 10.5 16 10.7239 16 11C16 11.2761 15.7761 11.5 15.5 11.5H6.5C6.22386 11.5 6 11.2761 6 11Z" fill="white"/>
</svg>
