<svg width="22" height="22" viewBox="0 0 22 22" fill="none" xmlns="http://www.w3.org/2000/svg">
<rect width="22" height="22" rx="11" fill="#4C83F1" fill-opacity="0.8"/>
<path d="M15.0001 6.5C15.1631 6.5 15.3157 6.5795 15.4093 6.71289C15.5028 6.84624 15.5257 7.01672 15.4703 7.16992L12.0343 16.6699C11.9637 16.865 11.7798 16.9965 11.5724 17C11.365 17.0035 11.1769 16.8786 11.0997 16.686L9.36534 12.355L5.33897 10.9844C5.13989 10.9166 5.00436 10.7313 5.0001 10.521C4.99588 10.3107 5.12377 10.1202 5.31993 10.0444C6.83678 9.45894 9.13268 8.58039 11.0904 7.84814C12.069 7.48215 12.9654 7.1522 13.6383 6.91309C13.9742 6.79373 14.2577 6.69544 14.4693 6.62695C14.5747 6.59288 14.6672 6.56476 14.7413 6.54443C14.778 6.53436 14.8154 6.52491 14.8502 6.51758C14.8751 6.51234 14.9343 6.5 15.0001 6.5ZM10.3356 12.0864L11.5401 15.0957L13.8155 8.8042L10.3356 12.0864ZM12.985 8.21289C12.5144 8.3853 11.9914 8.5788 11.441 8.78467C9.98452 9.32943 8.34 9.95718 6.96934 10.4829L9.62071 11.3862L12.985 8.21289Z" fill="white"/>
</svg>
