<svg width="22" height="22" viewBox="0 0 22 22" fill="none" xmlns="http://www.w3.org/2000/svg">
<rect width="22" height="22" rx="11" fill="#37B9E1" fill-opacity="0.8"/>
<path d="M11.6 15.0005L11.6 6.00049C11.6 5.66912 11.3313 5.40039 10.9999 5.40039C10.6685 5.40039 10.3998 5.66912 10.3998 6.00049L10.3998 15.0005C10.3998 15.3319 10.6685 15.6006 10.9999 15.6006C11.3313 15.6006 11.6 15.3319 11.6 15.0005Z" fill="white"/>
<path d="M14.6049 12.0488C14.8543 11.8307 15.2334 11.8561 15.4515 12.1055C15.6697 12.3549 15.6443 12.734 15.3949 12.9521L11.3949 16.4521C11.1687 16.65 10.831 16.65 10.6049 16.4521L6.60487 12.9521C6.35552 12.734 6.33012 12.3549 6.54823 12.1055C6.76641 11.8561 7.14552 11.8307 7.39491 12.0488L10.9999 15.2031L14.6049 12.0488Z" fill="white"/>
</svg>
