<svg width="342" height="207" viewBox="0 0 342 207" fill="none" xmlns="http://www.w3.org/2000/svg">
<path d="M223.207 205.45L238.393 167.891H249.754L264.94 205.45H253.695L251.956 200.581H236.191L234.452 205.45H223.207ZM239.147 192.119H249L244.537 179.425C244.189 178.498 244.131 178.15 244.073 177.918C244.073 177.918 243.958 178.44 243.61 179.425L239.147 192.119Z" fill="white"/>
<path d="M189.832 205.45V167.891H219.683V177.223H200.845V181.802H218.929V191.018H200.845V196.118H220.378V205.45H189.832Z" fill="white"/>
<path d="M151.186 205.45V167.891H167.763C179.297 167.891 185.209 174.556 185.209 182.729C185.209 187.076 183.239 191.539 179.297 194.264L186.311 205.45H173.733L169.444 197.393C168.284 197.509 167.647 197.567 166.719 197.567H162.198V205.45H151.186ZM162.198 188.235H167.879C171.298 188.235 173.559 185.743 173.559 182.729C173.559 179.657 171.241 177.223 167.937 177.223H162.198V188.235Z" fill="white"/>
<path d="M126.398 206.146C114.342 206.146 106.285 197.51 106.285 186.671C106.285 175.948 114.342 167.312 126.398 167.312C138.454 167.312 146.569 175.948 146.569 186.671C146.569 197.51 138.454 206.146 126.398 206.146ZM126.398 196.177C131.499 196.177 135.092 192.235 135.092 186.671C135.092 181.222 131.499 177.281 126.398 177.281C121.645 177.281 117.762 181.222 117.762 186.671C117.762 192.235 121.355 196.177 126.398 196.177Z" fill="white"/>
<path d="M71.7969 205.45V167.891H82.8097V185.917C83.4473 184.758 84.0849 183.425 84.8964 182.091L93.5328 167.891H106.227L94.6341 184.236L108.139 205.45H95.2716L88.1423 192.872L82.8097 199.886V205.45H71.7969Z" fill="white"/>
<path d="M19.5215 205.45V167.891H29.0853L41.0255 184.526C41.895 185.685 42.7064 187.366 42.7064 187.366V167.891H53.7193V205.45H44.1555L32.2152 189.105C31.3458 187.946 30.5343 186.265 30.5343 186.265V205.45H19.5215Z" fill="white"/>
<path d="M2.72461 205.45V167.891H13.7375V205.45H2.72461Z" fill="white"/>
<path d="M310.889 149.487V133.2L297.615 111.928H310.193L313.497 118.13C314.714 120.39 316.395 123.868 316.395 123.868C316.395 123.868 318.076 120.39 319.235 118.13L322.423 111.928H335.001L321.901 133.2V149.487H310.889Z" fill="white"/>
<path d="M261.006 149.487L276.192 111.928H287.553L302.739 149.487H291.494L289.755 144.619H273.989L272.251 149.487H261.006ZM276.946 136.156H286.799L282.336 123.462C281.988 122.535 281.93 122.187 281.872 121.955C281.872 121.955 281.756 122.477 281.409 123.462L276.946 136.156Z" fill="white"/>
<path d="M230.008 149.487V111.928H246.585C258.12 111.928 264.032 118.593 264.032 126.766C264.032 134.939 258.12 141.604 246.527 141.604H241.021V149.487H230.008ZM241.021 132.273H246.817C250.063 132.273 252.381 129.838 252.381 126.766C252.381 123.694 250.063 121.26 246.875 121.26H241.021V132.273Z" fill="white"/>
<path d="M192.951 150.182C180.895 150.182 172.838 141.546 172.838 130.707C172.838 119.984 180.895 111.348 192.951 111.348C205.007 111.348 213.122 119.984 213.122 130.707C213.122 141.546 205.007 150.182 192.951 150.182ZM192.951 140.213C198.052 140.213 201.645 136.271 201.645 130.707C201.645 125.259 198.052 121.317 192.951 121.317C188.198 121.317 184.314 125.259 184.314 130.707C184.314 136.271 187.908 140.213 192.951 140.213Z" fill="white"/>
<path d="M147.747 149.487V121.26H135.98V111.928H170.526V121.26H158.76V149.487H147.747Z" fill="white"/>
<path d="M100.869 149.487V133.2L87.5957 111.928H100.174L103.477 118.13C104.695 120.39 106.376 123.868 106.376 123.868C106.376 123.868 108.056 120.39 109.216 118.13L112.404 111.928H124.981L111.882 133.2V149.487H100.869Z" fill="white"/>
<path d="M50.9863 149.487L66.1725 111.928H77.5331L92.7192 149.487H81.4745L79.7357 144.619H63.9699L62.231 149.487H50.9863ZM66.926 136.156H76.7796L72.3165 123.462C71.9687 122.535 71.9108 122.187 71.8528 121.955C71.8528 121.955 71.7369 122.477 71.3891 123.462L66.926 136.156Z" fill="white"/>
<path d="M9.50583 149.487L0 111.928H11.3027L15.36 132.968C15.5339 134.011 15.7658 134.881 15.9397 135.866C16.1715 134.881 16.3454 134.301 16.6352 132.968L21.562 111.928H32.5169L37.3857 132.968C37.6756 134.301 37.8494 134.881 38.0813 135.866C38.3131 134.881 38.487 134.185 38.7189 132.968L43.2399 111.928H54.0789L44.5731 149.487H32.9806L27.8799 129.143C27.5321 127.809 27.3003 126.65 27.0105 125.375C26.7207 126.65 26.4888 127.809 26.141 129.143L21.0403 149.487H9.50583Z" fill="white"/>
<path d="M279.028 93.5235V65.2958H267.262V55.9639H301.807V65.2958H290.041V93.5235H279.028Z" fill="white"/>
<path d="M249.265 94.2186C238.716 94.2186 234.601 90.1612 233.441 89.6975L237.035 81.1191C239.933 82.742 243.237 84.5389 249.265 84.5389C250.424 84.5389 253.786 84.1911 253.786 82.2204C253.786 80.4235 251.41 80.1337 249.265 79.6121C242.02 77.9891 234.427 75.2069 234.427 66.7444C234.427 58.9195 241.556 55.3838 249.265 55.3838C255.467 55.3838 259.988 56.9488 263.814 59.2093L260.104 67.7298C257.902 66.2228 252.917 65.0055 249.265 65.0055C248.338 65.0055 245.903 65.2374 245.903 66.7444C245.903 68.0776 247.294 68.6572 249.265 69.1209C254.887 70.3381 265.263 72.5986 265.263 82.2204C265.263 90.7988 257.032 94.2186 249.265 94.2186Z" fill="white"/>
<path d="M200.486 93.5235V55.9639H230.337V65.2958H211.499V69.8748H229.583V79.0909H211.499V84.1916H231.033V93.5235H200.486Z" fill="white"/>
<path d="M173.956 93.5235V65.2958H162.189V55.9639H196.735V65.2958H184.969V93.5235H173.956Z" fill="white"/>
<path d="M125.797 93.5235V55.9639H142.374C153.909 55.9639 159.821 62.6295 159.821 70.8022C159.821 75.1494 157.85 79.6125 153.909 82.3368L160.922 93.5235H148.344L144.055 85.4667C142.896 85.5826 142.258 85.6406 141.331 85.6406H136.81V93.5235H125.797ZM136.81 76.3087H142.49C145.91 76.3087 148.17 73.8163 148.17 70.8022C148.17 67.7302 145.852 65.2958 142.548 65.2958H136.81V76.3087Z" fill="white"/>
<path d="M80.9727 93.5235L96.1588 55.9639H107.519L122.706 93.5235H111.461L109.722 88.6547H93.9562L92.2174 93.5235H80.9727ZM96.9123 80.1921H106.766L102.303 67.4984C101.955 66.571 101.897 66.2232 101.839 65.9914C101.839 65.9914 101.723 66.513 101.375 67.4984L96.9123 80.1921Z" fill="white"/>
<path d="M38.0312 93.5235V55.9639H47.4212L54.7824 66.513C55.9996 68.3099 57.9703 71.3819 57.9703 71.3819C57.9703 71.3819 59.941 68.3099 61.1582 66.513L68.5195 55.9639H77.9094V93.5235H66.8965V74.5118C66.8965 74.5118 64.9838 77.5838 63.9404 79.0329L57.9703 87.3795L51.9422 79.0329C50.8989 77.5838 49.0441 74.6278 49.0441 74.6278V93.5235H38.0312Z" fill="white"/>
<path d="M17.1577 94.2186C6.60856 94.2186 2.49323 90.1612 1.33398 89.6975L4.92765 81.1191C7.82577 82.742 11.1296 84.5389 17.1577 84.5389C18.317 84.5389 21.6788 84.1911 21.6788 82.2204C21.6788 80.4235 19.3023 80.1337 17.1577 79.6121C9.91242 77.9891 2.31934 75.2069 2.31934 66.7444C2.31934 58.9195 9.44872 55.3838 17.1577 55.3838C23.3597 55.3838 27.8808 56.9488 31.7063 59.2093L27.9967 67.7298C25.7941 66.2228 20.8093 65.0055 17.1577 65.0055C16.2303 65.0055 13.7959 65.2374 13.7959 66.7444C13.7959 68.0776 15.187 68.6572 17.1577 69.1209C22.7801 70.3381 33.1553 72.5986 33.1553 82.2204C33.1553 90.7988 24.9247 94.2186 17.1577 94.2186Z" fill="white"/>
<path d="M78.0938 37.5596V0H107.944V9.33194H89.1066V13.911H107.191V23.127H89.1066V28.2277H108.64V37.5596H78.0938Z" fill="white"/>
<path d="M38.9941 37.5596V0H50.007V14.0269H61.3097V0H72.3225V37.5596H61.3097V23.3588H50.007V37.5596H38.9941Z" fill="white"/>
<path d="M12.4617 37.5596V9.33194H0.695312V0H35.2409V9.33194H23.4745V37.5596H12.4617Z" fill="white"/>
</svg>
