<svg width="158" height="8" viewBox="0 0 158 8" fill="none" xmlns="http://www.w3.org/2000/svg">
<path d="M153.23 7.85645V2.04153H150.806V0.119141H157.923V2.04153H155.499V7.85645H153.23Z" fill="white"/>
<path d="M144.03 7.85645V0.119141H150.179V2.04153H146.298V2.98481H150.024V4.88332H146.298V5.93407H150.322V7.85645H144.03Z" fill="white"/>
<path d="M136.684 7.85645V0.119141H138.952V5.93407H143.072V7.85645H136.684Z" fill="white"/>
<path d="M129.338 7.85645V0.119141H131.606V5.93407H135.726V7.85645H129.338Z" fill="white"/>
<path d="M119.985 7.85645L123.113 0.119141H125.453L128.582 7.85645H126.265L125.907 6.85347H122.659L122.301 7.85645H119.985ZM123.268 5.11019H125.298L124.379 2.49526C124.307 2.30421 124.295 2.23257 124.283 2.18481C124.283 2.18481 124.259 2.29227 124.188 2.49526L123.268 5.11019Z" fill="white"/>
<path d="M111.32 7.85645L109.362 0.119141H111.69L112.526 4.45347C112.562 4.66839 112.61 4.8475 112.645 5.05048C112.693 4.8475 112.729 4.7281 112.789 4.45347L113.804 0.119141H116.06L117.063 4.45347C117.123 4.7281 117.159 4.8475 117.207 5.05048C117.254 4.8475 117.29 4.70422 117.338 4.45347L118.269 0.119141H120.502L118.544 7.85645H116.156L115.105 3.66541C115.033 3.39078 114.986 3.15198 114.926 2.88929C114.866 3.15198 114.819 3.39078 114.747 3.66541L113.696 7.85645H111.32Z" fill="white"/>
<path d="M102.051 8C99.5669 8 97.9072 6.2209 97.9072 3.98806C97.9072 1.7791 99.5669 0 102.051 0C104.534 0 106.206 1.7791 106.206 3.98806C106.206 6.2209 104.534 8 102.051 8ZM102.051 5.94627C103.101 5.94627 103.842 5.13433 103.842 3.98806C103.842 2.86567 103.101 2.05373 102.051 2.05373C101.071 2.05373 100.271 2.86567 100.271 3.98806C100.271 5.13433 101.012 5.94627 102.051 5.94627Z" fill="white"/>
<path d="M92.6192 7.85645V2.04153H90.1953V0.119141H97.3117V2.04153H94.8879V7.85645H92.6192Z" fill="white"/>
<path d="M82.6492 7.85645V0.119141H86.0641C88.4402 0.119141 89.6581 1.49227 89.6581 3.17586C89.6581 4.85944 88.4402 6.23257 86.0522 6.23257H84.9178V7.85645H82.6492ZM84.9178 4.31019H86.1119C86.7805 4.31019 87.2581 3.80869 87.2581 3.17586C87.2581 2.54302 86.7805 2.04153 86.1238 2.04153H84.9178V4.31019Z" fill="white"/>
<path d="M76.9282 7.85645V4.50123L74.1938 0.119141H76.7849L77.4655 1.39675C77.7162 1.86242 78.0625 2.57884 78.0625 2.57884C78.0625 2.57884 78.4088 1.86242 78.6476 1.39675L79.3043 0.119141H81.8953L79.1968 4.50123V7.85645H76.9282Z" fill="white"/>
<path d="M67.3042 7.85645V0.119141H70.7191C73.0952 0.119141 74.3132 1.49227 74.3132 3.17586C74.3132 4.07138 73.9072 4.99078 73.0952 5.55198L74.54 7.85645H71.949L71.0654 6.19675C70.8266 6.22063 70.6952 6.23257 70.5042 6.23257H69.5729V7.85645H67.3042ZM69.5729 4.31019H70.743C71.4475 4.31019 71.9132 3.79675 71.9132 3.17586C71.9132 2.54302 71.4355 2.04153 70.7549 2.04153H69.5729V4.31019Z" fill="white"/>
<path d="M63.3016 8C60.8419 8 59.2061 6.2209 59.2061 3.98806C59.2061 1.7791 60.8419 0 63.3016 0C64.4837 0 65.5464 0.417911 66.2508 1.12239L64.7583 2.66269C64.209 2.10149 63.7673 2.05373 63.3971 2.05373C62.3941 2.05373 61.5702 2.86567 61.5702 3.98806C61.5702 5.13433 62.3344 5.94627 63.3971 5.94627C64.0299 5.94627 64.615 5.6597 65.0449 5.08657L66.4896 6.67463C65.7135 7.53433 64.627 8 63.3016 8Z" fill="white"/>
<path d="M52.7957 8C50.336 8 48.7002 6.2209 48.7002 3.98806C48.7002 1.7791 50.336 0 52.7957 0C53.9778 0 55.0405 0.417911 55.745 1.12239L54.2524 2.66269C53.7032 2.10149 53.2614 2.05373 52.8912 2.05373C51.8883 2.05373 51.0644 2.86567 51.0644 3.98806C51.0644 5.13433 51.8286 5.94627 52.8912 5.94627C53.5241 5.94627 54.1092 5.6597 54.539 5.08657L55.9838 6.67463C55.2077 7.53433 54.1211 8 52.7957 8Z" fill="white"/>
<path d="M43.7134 8C41.2298 8 39.5701 6.2209 39.5701 3.98806C39.5701 1.7791 41.2298 0 43.7134 0C46.1969 0 47.8686 1.7791 47.8686 3.98806C47.8686 6.2209 46.1969 8 43.7134 8ZM43.7134 5.94627C44.7641 5.94627 45.5044 5.13433 45.5044 3.98806C45.5044 2.86567 44.7641 2.05373 43.7134 2.05373C42.7342 2.05373 41.9343 2.86567 41.9343 3.98806C41.9343 5.13433 42.6745 5.94627 43.7134 5.94627Z" fill="white"/>
<path d="M34.5832 8C32.0996 8 30.4399 6.2209 30.4399 3.98806C30.4399 1.7791 32.0996 0 34.5832 0C37.0668 0 38.7385 1.7791 38.7385 3.98806C38.7385 6.2209 37.0668 8 34.5832 8ZM34.5832 5.94627C35.634 5.94627 36.3743 5.13433 36.3743 3.98806C36.3743 2.86567 35.634 2.05373 34.5832 2.05373C33.6041 2.05373 32.8041 2.86567 32.8041 3.98806C32.8041 5.13433 33.5444 5.94627 34.5832 5.94627Z" fill="white"/>
<path d="M22.6213 7.85645V0.119141H26.3587C27.6482 0.119141 28.9736 0.548991 28.9736 2.25645C28.9736 2.73407 28.7109 3.33108 28.293 3.60571C29.0333 3.84451 29.6303 4.47735 29.6303 5.5281C29.6303 7.23556 28.1736 7.85645 26.5139 7.85645H22.6213ZM24.89 5.93407H26.4542C26.896 5.93407 27.2661 5.85048 27.2661 5.38481C27.2661 4.91914 26.896 4.83556 26.4542 4.83556H24.89V5.93407ZM24.89 3.14004H26.1557C26.681 3.14004 26.8482 2.93705 26.8482 2.61466C26.8482 2.25645 26.681 2.04153 26.1557 2.04153H24.89V3.14004Z" fill="white"/>
<path d="M16.9003 7.85645V4.50123L14.166 0.119141H16.7571L17.4377 1.39675C17.6884 1.86242 18.0347 2.57884 18.0347 2.57884C18.0347 2.57884 18.3809 1.86242 18.6197 1.39675L19.2765 0.119141H21.8675L19.169 4.50123V7.85645H16.9003Z" fill="white"/>
<path d="M6.50513 7.85645L9.63348 0.119141H11.9738L15.1021 7.85645H12.7857L12.4275 6.85347H9.17975L8.82154 7.85645H6.50513ZM9.78871 5.11019H11.8186L10.8992 2.49526C10.8275 2.30421 10.8156 2.23257 10.8036 2.18481C10.8036 2.18481 10.7798 2.29227 10.7081 2.49526L9.78871 5.11019Z" fill="white"/>
<path d="M0 7.85645V0.119141H3.41493C5.79105 0.119141 7.00896 1.49227 7.00896 3.17586C7.00896 4.85944 5.79105 6.23257 3.40299 6.23257H2.26866V7.85645H0ZM2.26866 4.31019H3.46269C4.13134 4.31019 4.60896 3.80869 4.60896 3.17586C4.60896 2.54302 4.13134 2.04153 3.47463 2.04153H2.26866V4.31019Z" fill="white"/>
</svg>
