<svg width="40" height="40" viewBox="0 0 40 40" fill="none" xmlns="http://www.w3.org/2000/svg">
<rect width="40" height="40" rx="8" fill="white"/>
<rect x="4" y="4" width="32" height="32" fill="white"/>
<path d="M4.33215 10.999C4.33215 8.2376 6.57073 5.99902 9.33215 5.99902H30.8333C33.5947 5.99902 35.8333 8.2376 35.8333 10.999V28C35.8333 30.7614 33.5947 33 30.8333 33H9.33215C6.57073 33 4.33215 30.7614 4.33215 28V10.999Z" fill="#7A8394"/>
<path d="M13.3321 7.12402H9.45715C7.24802 7.12402 5.45715 8.91489 5.45715 11.124V14.999" stroke="black" stroke-width="2"/>
<path d="M26.8331 7.12402H30.7081C32.9173 7.12402 34.7081 8.91489 34.7081 11.124L34.7081 14.999" stroke="black" stroke-width="2"/>
<path d="M26.8331 31.875L30.7081 31.875C32.9173 31.875 34.7081 30.0841 34.7081 27.875L34.7081 24" stroke="black" stroke-width="2"/>
<path d="M13.3321 31.875L9.45715 31.875C7.24802 31.875 5.45715 30.0841 5.45715 27.875L5.45715 24" stroke="black" stroke-width="2"/>
<rect x="10.9572" y="12.624" width="18.25" height="13.75" rx="2" fill="white" stroke="black" stroke-width="2"/>
</svg>
