<svg width="24" height="24" viewBox="0 0 24 24" fill="none" xmlns="http://www.w3.org/2000/svg">
<rect width="24" height="24" rx="8" fill="#3A43BB"/>
<path d="M18.6351 9.12665L10.8592 16.9025C10.7437 17.0184 10.6064 17.1103 10.4552 17.1731C10.304 17.2358 10.142 17.2681 9.97834 17.2681C9.81469 17.2681 9.65264 17.2358 9.50149 17.1731C9.35033 17.1103 9.21303 17.0184 9.09746 16.9025L5.36488 13.17C5.2492 13.0543 5.15743 12.917 5.09483 12.7658C5.03222 12.6147 5 12.4527 5 12.2891C5 12.1255 5.03222 11.9635 5.09483 11.8123C5.15743 11.6612 5.2492 11.5239 5.36488 11.4082C5.5985 11.1746 5.91537 11.0433 6.24577 11.0433C6.40936 11.0433 6.57136 11.0755 6.7225 11.1381C6.87364 11.2007 7.01097 11.2925 7.12665 11.4082L9.97834 14.2624L16.8733 7.36488C17.107 7.13125 17.4238 7 17.7542 7C18.0846 7 18.4015 7.13125 18.6351 7.36488C18.8688 7.5985 19 7.91537 19 8.24577C19 8.57616 18.8688 8.89303 18.6351 9.12665Z" fill="white"/>
</svg>
