<svg xmlns="http://www.w3.org/2000/svg" width="14" height="11" viewBox="0 0 14 11">
<path d="M13.6351 2.12665L5.85923 9.90254C5.74366 10.0184 5.60636 10.1103 5.4552 10.1731C5.30405 10.2358 5.142 10.2681 4.97834 10.2681C4.81469 10.2681 4.65264 10.2358 4.50149 10.1731C4.35033 10.1103 4.21303 10.0184 4.09746 9.90254L0.364876 6.16997C0.249196 6.05429 0.157434 5.91695 0.0948283 5.76581C0.0322228 5.61467 0 5.45267 0 5.28908C0 5.12548 0.0322228 4.96349 0.0948283 4.81234C0.157434 4.6612 0.249196 4.52387 0.364876 4.40819C0.598503 4.17456 0.915368 4.04331 1.24577 4.04331C1.40936 4.04331 1.57136 4.07553 1.7225 4.13814C1.87364 4.20075 2.01097 4.29251 2.12665 4.40819L4.97834 7.26237L11.8733 0.364876C12.107 0.13125 12.4238 -8.52741e-09 12.7542 0C13.0846 8.52742e-09 13.4015 0.13125 13.6351 0.364876C13.8688 0.598503 14 0.915368 14 1.24577C14 1.57616 13.8688 1.89303 13.6351 2.12665Z"/>
</svg>