<svg width="16" height="16" viewBox="0 0 16 16" fill="none" xmlns="http://www.w3.org/2000/svg">
<path d="M7.99992 11.6002C7.66992 11.6002 7.39992 11.3302 7.39992 11.0002V7.67017C7.39992 7.34017 7.66992 7.07017 7.99992 7.07017C8.32992 7.07017 8.59992 7.34017 8.59992 7.67017V11.0002C8.59992 11.3302 8.32992 11.6002 7.99992 11.6002Z" fill="black"/>
<path d="M7.99992 5.93017C8.33129 5.93017 8.59992 5.66154 8.59992 5.33017C8.59992 4.9988 8.33129 4.73017 7.99992 4.73017C7.66855 4.73017 7.39992 4.9988 7.39992 5.33017C7.39992 5.66154 7.66855 5.93017 7.99992 5.93017Z" fill="black"/>
<path d="M7.99992 1.87017C11.3799 1.87017 14.1299 4.62017 14.1299 8.00017C14.1299 11.3802 11.3799 14.1302 7.99992 14.1302C4.61992 14.1302 1.86992 11.3802 1.86992 8.00017C1.86992 4.62017 4.61992 1.87017 7.99992 1.87017ZM7.99992 0.670166C3.94992 0.670166 0.669922 3.95017 0.669922 8.00017C0.669922 12.0502 3.94992 15.3302 7.99992 15.3302C12.0499 15.3302 15.3299 12.0502 15.3299 8.00017C15.3299 3.95017 12.0499 0.670166 7.99992 0.670166Z" fill="black"/>
</svg>
