<svg width="24" height="24" viewBox="0 0 24 24" fill="none" xmlns="http://www.w3.org/2000/svg">
<path fill-rule="evenodd" clip-rule="evenodd" d="M12.0296 2C12.2949 1.99989 12.5495 2.10526 12.7371 2.29289L18.7771 8.33289C19.1676 8.72342 19.1676 9.35658 18.7771 9.74711C18.3866 10.1376 17.7534 10.1376 17.3629 9.74711L12.0306 4.4148L6.70769 9.74652C6.31749 10.1374 5.68433 10.1379 5.29348 9.74769C4.90263 9.35749 4.90211 8.72433 5.29231 8.33348L11.3223 2.29348C11.5098 2.10569 11.7642 2.00011 12.0296 2Z" fill="#626A7A"/>
<path fill-rule="evenodd" clip-rule="evenodd" d="M12.03 3C12.5823 3 13.03 3.44772 13.03 4V21C13.03 21.5523 12.5823 22 12.03 22C11.4777 22 11.03 21.5523 11.03 21V4C11.03 3.44772 11.4777 3 12.03 3Z" fill="#626A7A"/>
</svg>
