<svg width="24" height="24" viewBox="0 0 24 24" fill="none" xmlns="http://www.w3.org/2000/svg">
<g id="ico-close" clip-path="url(#clip0_1597_30091)">
<g id="Vector">
<path fill-rule="evenodd" clip-rule="evenodd" d="M3.79289 3.79289C4.18342 3.40237 4.81658 3.40237 5.20711 3.79289L20.3371 18.9229C20.7276 19.3134 20.7276 19.9466 20.3371 20.3371C19.9466 20.7276 19.3134 20.7276 18.9229 20.3371L3.79289 5.20711C3.40237 4.81658 3.40237 4.18342 3.79289 3.79289Z" fill="black"/>
<path fill-rule="evenodd" clip-rule="evenodd" d="M20.3371 3.79289C20.7276 4.18342 20.7276 4.81658 20.3371 5.20711L5.20711 20.3371C4.81658 20.7276 4.18342 20.7276 3.79289 20.3371C3.40237 19.9466 3.40237 19.3134 3.79289 18.9229L18.9229 3.79289C19.3134 3.40237 19.9466 3.40237 20.3371 3.79289Z" fill="black"/>
</g>
</g>
<defs>
<clipPath id="clip0_1597_30091">
<rect width="24" height="24" fill="white"/>
</clipPath>
</defs>
</svg>
