<svg xmlns="http://www.w3.org/2000/svg" width="24" height="24" viewBox="0 0 24 24" fill="none">
  <g clip-path="url(#clip0_4716_5780)">
    <path d="M21 15.5H18.34C17.91 14.06 16.58 13 15 13C13.42 13 12.1 14.06 11.66 15.5H3C2.45 15.5 2 15.95 2 16.5C2 17.05 2.45 17.5 3 17.5H11.66C12.09 18.94 13.42 20 15 20C16.58 20 17.9 18.94 18.34 17.5H21C21.55 17.5 22 17.05 22 16.5C22 15.95 21.55 15.5 21 15.5ZM15 18C14.17 18 13.5 17.33 13.5 16.5C13.5 15.67 14.17 15 15 15C15.83 15 16.5 15.67 16.5 16.5C16.5 17.33 15.83 18 15 18Z" fill="black"/>
    <path d="M3 8.5H5.66C6.09 9.94 7.42 11 9 11C10.58 11 11.9 9.94 12.34 8.5H21C21.55 8.5 22 8.05 22 7.5C22 6.95 21.55 6.5 21 6.5H12.34C11.91 5.06 10.58 4 9 4C7.42 4 6.1 5.06 5.66 6.5H3C2.45 6.5 2 6.95 2 7.5C2 8.05 2.45 8.5 3 8.5ZM9 6C9.83 6 10.5 6.67 10.5 7.5C10.5 8.33 9.83 9 9 9C8.17 9 7.5 8.33 7.5 7.5C7.5 6.67 8.17 6 9 6Z" fill="black"/>
  </g>
  <defs>
    <clipPath id="clip0_4716_5780">
      <rect width="24" height="24" fill="white"/>
    </clipPath>
  </defs>
</svg>