<svg width="72" height="72" viewBox="0 0 72 72" fill="none" xmlns="http://www.w3.org/2000/svg">
<path d="M50.75 2.25C56.2728 2.25 60.75 6.72715 60.75 12.25V59.75C60.75 65.2729 56.2728 69.75 50.75 69.75H21.25C15.7272 69.75 11.25 65.2729 11.25 59.75V12.25C11.25 6.72715 15.7272 2.25 21.25 2.25H50.75ZM36 58.5C34.4467 58.5 33.1875 59.7592 33.1875 61.3125C33.1875 62.8658 34.4467 64.125 36 64.125C37.5533 64.125 38.8125 62.8658 38.8125 61.3125C38.8125 59.7592 37.5533 58.5 36 58.5ZM28.9121 9C27.8562 9.00021 27.0002 9.85617 27 10.9121C27 11.9682 27.856 12.825 28.9121 12.8252H43.0879C44.144 12.825 45 11.9682 45 10.9121C44.9998 9.85617 44.1438 9.00021 43.0879 9H28.9121Z" fill="#F09F54"/>
</svg>
