<svg width="40" height="40" viewBox="0 0 40 40" fill="none" xmlns="http://www.w3.org/2000/svg">
<path opacity="0.7" fill-rule="evenodd" clip-rule="evenodd" d="M26.2772 30.2772C23.7818 31.9946 20.7583 33 17.5 33C8.93959 33 2 26.0604 2 17.5C2 8.93959 8.93959 2 17.5 2C26.0604 2 33 8.93959 33 17.5C33 20.9971 31.8419 24.2237 29.8882 26.8172L38.0208 34.9497L34.4853 38.4853L26.2772 30.2772ZM29 17.5C29 23.8513 23.8513 29 17.5 29C11.1487 29 6 23.8513 6 17.5C6 11.1487 11.1487 6 17.5 6C23.8513 6 29 11.1487 29 17.5Z" fill="#343841"/>
</svg>
