<svg width="72" height="72" viewBox="0 0 72 72" fill="none" xmlns="http://www.w3.org/2000/svg">
<path d="M52.875 5.625C60.3338 5.625 66.375 11.6663 66.375 19.125V52.875C66.375 60.3338 60.3338 66.375 52.875 66.375H5.625V19.125C5.625 11.6663 11.6663 5.625 19.125 5.625H52.875ZM42.666 37.5264C39.6759 37.5264 37.2706 39.9318 37.2705 42.9219C37.2705 45.912 39.7084 48.3174 42.666 48.3174C45.656 48.3171 48.0605 45.9119 48.0605 42.9219C48.0604 39.932 45.6559 37.5266 42.666 37.5264ZM25.7451 43.9561L28.043 46.2549L46.2676 28.0293L43.9697 25.7314L25.7451 43.9561ZM42.666 40.8096C43.8684 40.8098 44.8105 41.7527 44.8105 42.9551C44.8103 44.1573 43.8682 45.0994 42.666 45.0996C41.4636 45.0996 40.5208 44.1574 40.5205 42.9551C40.5205 41.7525 41.496 40.8096 42.666 40.8096ZM29.3398 23.6836C26.3497 23.6836 23.9444 26.0558 23.9443 29.0459C23.9443 32.036 26.3822 34.4414 29.3398 34.4414C32.3299 34.4413 34.7354 32.0035 34.7354 29.0459C34.7353 26.0883 32.3299 23.6837 29.3398 23.6836ZM29.3398 26.9336C30.5423 26.9337 31.4843 27.8434 31.4844 29.0459C31.4844 30.2484 30.5423 31.1913 29.3398 31.1914C28.1373 31.1914 27.1943 30.216 27.1943 29.0459C27.1944 27.8759 28.1698 26.9336 29.3398 26.9336Z" fill="#46B5DA"/>
</svg>
